<?xml version="1.0" standalone="no"?>
<!DOCTYPE svg PUBLIC "-//W3C//DTD SVG 20010904//EN"
 "http://www.w3.org/TR/2001/REC-SVG-20010904/DTD/svg10.dtd">
<svg version="1.0" xmlns="http://www.w3.org/2000/svg"
 width="512.000000pt" height="512.000000pt" viewBox="0 0 512.000000 512.000000"
 preserveAspectRatio="xMidYMid meet">
<metadata>
Created by potrace 1.14, written by Peter Selinger 2001-2017
</metadata>
<g transform="translate(0.000000,512.000000) scale(0.100000,-0.100000)"
fill="#000000" stroke="none">
<path d="M1520 5023 c0 -13 1007 -1023 1021 -1023 5 0 8 -3 7 -7 -3 -10 141
-153 153 -153 5 0 8 -3 7 -7 -3 -10 640 -653 653 -653 5 0 8 -3 7 -8 -2 -4 23
-32 54 -61 32 -30 55 -58 52 -63 -3 -5 -1 -7 4 -6 13 4 453 -438 444 -447 -4
-3 -2 -5 4 -3 6 2 64 -50 128 -114 l117 -117 -211 -210 c-116 -116 -215 -211
-220 -211 -4 0 -10 -4 -12 -9 -6 -17 -138 -151 -148 -151 -6 0 -10 -4 -10 -8
0 -9 -71 -85 -83 -89 -4 -2 -6 -4 -6 -5 3 -4 -145 -154 -151 -154 -3 1 -7 -3
-10 -8 -6 -11 -135 -139 -178 -177 -18 -16 -30 -29 -28 -29 3 0 -14 -18 -36
-40 -23 -22 -46 -40 -50 -40 -4 0 -8 -5 -8 -11 0 -5 -21 -29 -46 -52 -87 -79
-142 -136 -136 -141 3 -4 0 -6 -5 -6 -6 0 -78 -66 -160 -148 l-148 -147 -387
0 c-263 1 -385 -3 -380 -10 3 -5 -3 -3 -14 5 -10 8 -20 15 -22 16 -2 1 348
354 777 783 l781 781 -25 26 c-14 14 -25 26 -25 28 0 2 -214 217 -475 479
l-474 477 -496 0 c-324 0 -503 -4 -516 -10 -10 -6 -35 -26 -54 -45 -19 -19
-39 -35 -45 -35 -6 0 -8 -4 -5 -10 3 -5 2 -10 -3 -10 -9 0 -66 -49 -164 -142
-22 -21 -44 -38 -49 -38 -6 0 -7 -4 -4 -10 3 -5 0 -10 -7 -10 -8 0 -25 -13
-38 -30 -14 -16 -28 -29 -32 -30 -4 0 -21 -14 -38 -30 -17 -17 -35 -30 -41
-30 -6 0 -7 -4 -4 -10 3 -5 3 -10 -2 -10 -4 -1 -29 -20 -55 -43 -37 -33 -45
-46 -36 -57 8 -12 9 -12 4 3 -4 12 -2 16 6 11 17 -11 149 -12 170 -2 9 4 19 5
21 1 6 -10 289 -9 304 0 7 4 14 4 16 0 6 -10 289 -9 304 0 7 4 14 4 16 0 6
-10 289 -9 304 0 7 4 14 4 17 -1 6 -10 98 -8 116 3 9 6 11 4 6 -4 -6 -9 2 -11
32 -6 l40 6 124 -126 c68 -69 122 -128 119 -130 -2 -3 1 -5 7 -5 9 0 212 -197
212 -206 0 -9 -296 -299 -305 -299 -5 0 -10 -5 -10 -10 0 -15 -102 -114 -110
-107 -4 4 -5 2 -3 -3 4 -14 -638 -656 -647 -647 -4 4 -5 2 -3 -3 4 -13 -188
-206 -197 -197 -4 4 -5 3 -3 -3 3 -11 -453 -471 -464 -467 -5 1 -8 -2 -8 -7 0
-16 -77 -91 -85 -83 -5 4 -5 2 -2 -4 7 -12 -28 -46 -38 -36 -4 4 -5 2 -3 -3 4
-13 -148 -166 -157 -157 -4 4 -5 2 -3 -3 1 -6 -16 -30 -40 -54 -23 -24 -42
-46 -42 -50 0 -3 533 -6 1184 -6 l1184 0 113 110 c62 61 134 131 160 158 27
26 54 47 61 47 6 0 9 3 5 6 -7 7 41 54 55 54 5 0 6 5 3 10 -3 6 -3 10 2 10 14
0 183 167 183 181 0 7 3 10 6 7 3 -3 43 31 89 76 46 44 156 151 245 236 89 85
203 196 254 245 289 282 388 375 398 375 6 0 9 3 5 6 -3 4 11 21 31 40 20 18
104 99 186 179 82 80 153 145 157 145 5 0 9 7 9 16 0 8 5 12 10 9 6 -3 14 4
19 17 6 13 10 20 10 17 1 -4 52 43 114 103 101 99 110 111 95 122 -10 7 -18
17 -19 22 0 5 -20 25 -43 44 -24 19 -42 38 -40 41 2 3 -8 12 -21 19 -14 7 -27
21 -31 32 -3 10 -13 18 -21 18 -9 0 -14 3 -11 6 6 6 -50 64 -62 64 -4 0 -13
11 -20 25 -7 14 -15 23 -17 22 -4 -5 -133 125 -133 134 0 4 -9 11 -20 14 -11
3 -20 10 -20 15 0 12 -68 78 -75 72 -3 -3 -5 2 -5 11 0 8 -8 19 -17 23 -10 3
-56 48 -103 99 -47 51 -93 96 -102 99 -10 4 -18 13 -18 21 0 7 -4 15 -9 17
-10 3 -127 116 -214 208 -27 27 -53 50 -58 50 -5 0 -9 4 -9 9 0 10 -175 184
-190 189 -6 2 -8 8 -4 13 3 5 -3 9 -12 9 -10 0 -15 3 -11 6 3 3 -19 27 -48 54
-29 27 -51 51 -48 53 2 3 -5 8 -16 12 -12 3 -21 12 -21 20 0 8 -9 17 -20 20
-11 3 -20 12 -21 18 0 7 -20 28 -43 47 -24 19 -42 38 -40 41 2 3 -8 12 -21 19
-14 7 -25 16 -25 20 0 10 -58 69 -63 64 -2 -2 -10 7 -17 21 -7 14 -19 25 -26
25 -7 0 -16 9 -19 20 -4 11 -9 19 -13 17 -4 -2 -19 10 -34 25 -15 15 -24 28
-22 28 3 0 -15 18 -40 39 -25 21 -42 41 -40 44 3 3 -4 8 -15 12 -12 3 -21 12
-21 19 0 7 -11 19 -25 26 -13 7 -22 17 -19 22 3 4 -2 8 -11 8 -9 0 -14 4 -11
8 3 5 -4 15 -16 23 -11 8 -50 45 -86 83 -66 67 -78 80 -104 102 -7 6 -53 52
-102 103 -49 50 -93 91 -97 91 -5 0 -9 6 -10 13 0 6 -29 38 -64 69 -35 31 -61
59 -58 61 2 3 -5 8 -16 12 -12 3 -21 10 -21 15 0 4 -35 42 -77 84 l-78 76
-367 -3 c-237 -1 -368 -6 -368 -12 0 -5 -5 -3 -10 5 -6 9 -10 10 -10 3z"/>
<path d="M963 4453 c4 -6 -37 -10 -106 -10 -223 -1 -307 -5 -307 -14 0 -5 5
-9 10 -9 6 0 10 -7 10 -17 0 -9 3 -14 6 -11 3 3 26 -17 52 -45 26 -28 70 -74
97 -103 28 -29 67 -70 88 -93 21 -22 40 -39 43 -38 3 1 12 -11 20 -26 8 -15
19 -25 24 -22 6 4 10 0 10 -8 0 -8 7 -18 16 -21 8 -3 13 -10 10 -14 -3 -5 6
-15 19 -22 14 -7 25 -16 25 -20 0 -4 47 -55 104 -113 56 -59 101 -107 99 -107
-2 0 17 -19 42 -42 43 -40 80 -55 91 -36 3 4 11 5 17 1 19 -11 47 -11 47 1 0
7 3 8 8 1 9 -14 45 -14 54 0 5 7 8 7 8 -1 0 -13 62 -13 72 1 5 7 8 6 8 0 0
-12 108 -14 127 -2 6 4 14 3 17 -1 6 -10 52 -10 62 0 3 4 16 3 29 -2 14 -5 26
-5 34 3 7 7 11 8 11 0 0 -13 42 -12 52 2 5 7 8 7 8 0 0 -6 29 -11 70 -11 39 0
70 2 70 5 0 4 -45 53 -100 111 -55 57 -100 108 -100 112 0 5 -4 6 -10 3 -5 -3
-10 -2 -10 2 0 5 -36 46 -80 91 -44 45 -78 82 -77 82 2 0 -47 52 -109 116 -62
63 -115 122 -118 130 -3 7 -12 14 -21 14 -8 0 -14 3 -13 8 2 4 -18 28 -44 54
-45 47 -49 48 -112 50 -36 2 -66 0 -66 -4 0 -4 -12 -3 -26 2 -14 6 -23 6 -20
2 6 -10 -120 -6 -136 4 -6 4 -8 3 -5 -3z"/>
</g>
</svg>
