<?xml version="1.0" encoding="UTF-8" standalone="no"?>
<svg
   xmlns:dc="http://purl.org/dc/elements/1.1/"
   xmlns:cc="http://creativecommons.org/ns#"
   xmlns:rdf="http://www.w3.org/1999/02/22-rdf-syntax-ns#"
   xmlns:svg="http://www.w3.org/2000/svg"
   xmlns="http://www.w3.org/2000/svg"
   viewBox="0 0 1637.8 481.97333"
   height="481.97333"
   width="1637.8"
   xml:space="preserve"
   id="svg2"
   version="1.1"><metadata
     id="metadata8"><rdf:RDF><cc:Work
         rdf:about=""><dc:format>image/svg+xml</dc:format><dc:type
           rdf:resource="http://purl.org/dc/dcmitype/StillImage" /></cc:Work></rdf:RDF></metadata><defs
     id="defs6" /><g
     transform="matrix(1.3333333,0,0,-1.3333333,0,481.97333)"
     id="g10"><g
       transform="scale(0.1)"
       id="g12"><path
         id="path14"
         style="fill:#a87dc5;fill-opacity:1;fill-rule:nonzero;stroke:none"
         d="m 1214.7,2609.86 -554.927,0.45 -534.832,563.87 544.883,10.09 544.876,-574.41" /><path
         id="path16"
         style="fill:#80d6ed;fill-opacity:1;fill-rule:nonzero;stroke:none"
         d="m 2193.64,414.641 h -592.8 L 2821.99,1631.33 844.879,3608.43 1407.35,3614.82 3422.08,1600.1 2193.64,414.641" /><path
         id="path18"
         style="fill:#6458b1;fill-opacity:1;fill-rule:nonzero;stroke:none"
         d="M 1763.98,0 H 0 L 414.637,414.641 1588.79,1588.94 1246.13,1933.83 H 222.488 l 446.758,402.13 H 1413.59 L 2156.31,1588.05 982.898,414.641 H 1600.84 L 1184.86,0 h 579.12 L 2193.64,414.641 1763.98,0" /><path
         id="path20"
         style="fill:#4657af;fill-opacity:1;fill-rule:nonzero;stroke:none"
         d="m 1763.98,0 h -579.12 l 415.98,414.641 h 592.8 L 1763.98,0" /><path
         id="path22"
         style="fill:#2e2d2d;fill-opacity:1;fill-rule:nonzero;stroke:none"
         d="m 4558.31,1661.93 v 772.28 h -474.95 v 133.86 h 1108.2 v -133.86 h -462.08 v -772.28 h -171.17" /><path
         id="path24"
         style="fill:#2e2d2d;fill-opacity:1;fill-rule:nonzero;stroke:none"
         d="m 6266.3,2350.53 c 0,55.77 -37.78,83.68 -113.28,83.68 h -598.5 v -234.25 h 598.5 c 75.5,0 113.28,27.88 113.28,83.64 z m -21.88,-688.6 -212.37,404.16 h -477.53 v -404.16 h -171.2 v 906.14 h 769.7 c 51.48,0 95.26,-5.39 131.3,-16.09 36.02,-10.74 65.41,-25.73 88.16,-45.06 22.72,-19.3 39.27,-42.48 49.56,-69.51 10.28,-27 15.44,-56.42 15.44,-88.15 v -64.35 c 0,-58.38 -17.17,-107.06 -51.49,-146.1 -34.31,-39.06 -91.83,-62.43 -172.48,-70.14 l 213.69,-406.74 h -182.78" /><path
         id="path26"
         style="fill:#2e2d2d;fill-opacity:1;fill-rule:nonzero;stroke:none"
         d="m 7701.41,1661.93 -467.2,729.81 -474.94,-729.81 h -190.51 l 602.37,906.14 h 124.86 l 598.51,-906.14 h -193.09" /><path
         id="path28"
         style="fill:#2e2d2d;fill-opacity:1;fill-rule:nonzero;stroke:none"
         d="m 9172.61,1661.93 -966.63,705.35 v -705.35 h -150.61 v 906.14 h 149.33 l 900.97,-673.15 v 673.15 h 150.59 v -906.14 h -83.65" /><path
         id="path30"
         style="fill:#2e2d2d;fill-opacity:1;fill-rule:nonzero;stroke:none"
         d="m 9511.11,1661.93 v 133.87 h 787.69 c 75.5,0 113.3,27.88 113.3,83.64 v 114.57 c 0,55.76 -37.8,83.67 -113.3,83.67 h -532.83 c -51.49,0 -95.24,5.34 -131.28,16.07 -36.05,10.74 -65.46,25.76 -88.19,45.06 -22.72,19.32 -39.25,42.24 -49.53,68.85 -10.31,26.61 -15.44,56.2 -15.44,88.83 v 52.77 c 0,31.73 5.13,61.15 15.44,88.15 10.28,27.03 26.81,50.21 49.53,69.51 22.73,19.33 52.14,34.32 88.19,45.06 36.04,10.7 79.79,16.09 131.28,16.09 h 767.13 v -133.86 h -767.13 c -75.52,0 -113.27,-27.91 -113.27,-83.68 v -55.34 c 0,-55.79 37.75,-83.65 113.27,-83.65 h 532.83 c 51.5,0 95.3,-5.38 131.3,-16.09 36.1,-10.74 65.4,-25.75 88.2,-45.05 22.7,-19.3 39.2,-42.48 49.6,-69.51 10.2,-27.03 15.4,-56.42 15.4,-88.16 v -111.98 c 0,-32.62 -5.2,-62.23 -15.4,-88.81 -10.4,-26.61 -26.9,-49.56 -49.6,-68.86 -22.8,-19.32 -52.1,-34.34 -88.2,-45.05 -36,-10.74 -79.8,-16.1 -131.3,-16.1 h -787.69" /><path
         id="path32"
         style="fill:#2e2d2d;fill-opacity:1;fill-rule:nonzero;stroke:none"
         d="m 10807.2,1661.93 v 906.14 h 171.2 v -906.14 h -171.2" /><path
         id="path34"
         style="fill:#2e2d2d;fill-opacity:1;fill-rule:nonzero;stroke:none"
         d="m 11650.3,1661.93 v 772.28 h -475 v 133.86 h 1108.2 v -133.86 h -462 v -772.28 h -171.2" /><path
         id="path36"
         style="fill:#100f0d;fill-opacity:1;fill-rule:nonzero;stroke:none"
         d="m 4148.95,1067.34 c 62.75,0 94.75,34.86 94.75,91.91 0,57.35 -32,92.84 -94.75,92.84 h -43.4 v -184.75 z m 117.26,91.91 c 0,-68.77 -43.43,-110.29 -117.26,-110.29 h -65.59 v 221.51 h 65.59 c 73.83,0 117.26,-41.83 117.26,-111.22" /><path
         id="path38"
         style="fill:#100f0d;fill-opacity:1;fill-rule:nonzero;stroke:none"
         d="m 4549.76,1239.73 -43.73,-119.78 h 87.46 z m 50.39,-138.16 h -100.78 l -19.32,-52.61 h -23.45 l 80.8,218.66 h 25.03 l 80.49,-218.66 h -23.44 l -19.33,52.61" /><path
         id="path40"
         style="fill:#100f0d;fill-opacity:1;fill-rule:nonzero;stroke:none"
         d="m 4827.3,1270.47 h 145.45 v -18.38 h -61.48 v -203.13 h -22.18 v 203.13 h -61.79 v 18.38" /><path
         id="path42"
         style="fill:#100f0d;fill-opacity:1;fill-rule:nonzero;stroke:none"
         d="m 5250.6,1239.73 -43.73,-119.78 h 87.46 z m 50.39,-138.16 h -100.77 l -19.33,-52.61 h -23.45 l 80.81,218.66 h 25.03 l 80.49,-218.66 h -23.45 l -19.33,52.61" /><path
         id="path44"
         style="fill:#100f0d;fill-opacity:1;fill-rule:nonzero;stroke:none"
         d="m 5779.72,1270.47 h 145.44 v -18.38 h -61.47 v -203.13 h -22.18 v 203.13 h -61.79 v 18.38" /><path
         id="path46"
         style="fill:#100f0d;fill-opacity:1;fill-rule:nonzero;stroke:none"
         d="m 6191.62,1251.78 h -44.36 v -92.22 h 44.68 c 36.13,0 52.29,19.65 52.29,46.59 0,27.87 -15.21,45.63 -52.61,45.63 z m 0,18.69 c 51.34,0 75.42,-27.88 75.42,-64.32 0,-30.44 -17.11,-56.09 -54.5,-63.08 l 57.04,-94.11 h -26.62 l -54.82,92.53 h -40.88 v -92.53 h -22.18 v 221.51 h 66.54" /><path
         id="path48"
         style="fill:#100f0d;fill-opacity:1;fill-rule:nonzero;stroke:none"
         d="m 6474.86,1270.47 h 22.19 v -139.44 c 0,-45.93 24.08,-64.64 58.62,-64.64 34.54,0 57.99,18.71 57.99,64.64 v 139.44 h 22.18 v -139.11 c 0,-58.63 -35.48,-84.61 -80.49,-84.61 -44.99,0 -80.49,25.98 -80.49,84.61 v 139.11" /><path
         id="path50"
         style="fill:#100f0d;fill-opacity:1;fill-rule:nonzero;stroke:none"
         d="m 6917.2,1046.75 c -44.37,0 -73.52,25.35 -74.79,59.25 h 23.45 c 1.89,-18.38 15.53,-40.55 51.34,-40.55 30.73,0 48.79,18.05 48.79,40.88 0,65.27 -121.68,24.08 -121.68,107.42 0,34.23 28.21,59.26 70.98,59.26 42.15,0 67.5,-23.45 71.3,-53.87 h -24.08 c -2.54,15.52 -17.43,34.53 -48.17,34.85 -25.98,0.31 -47.53,-13.94 -47.53,-39.62 0,-64 121.68,-24.7 121.68,-107.1 0,-30.1 -24.4,-60.52 -71.29,-60.52" /><path
         id="path52"
         style="fill:#100f0d;fill-opacity:1;fill-rule:nonzero;stroke:none"
         d="m 7180.16,1270.47 h 145.44 v -18.38 h -61.47 v -203.13 h -22.18 v 203.13 h -61.79 v 18.38" /><path
         id="path54"
         style="fill:#100f0d;fill-opacity:1;fill-rule:nonzero;stroke:none"
         d="m 7592.69,1046.75 c -44.36,0 -73.51,25.35 -74.78,59.25 h 23.45 c 1.89,-18.38 15.52,-40.55 51.33,-40.55 30.74,0 48.8,18.05 48.8,40.88 0,65.27 -121.68,24.08 -121.68,107.42 0,34.23 28.21,59.26 70.98,59.26 42.15,0 67.5,-23.45 71.3,-53.87 h -24.08 c -2.54,15.52 -17.44,34.53 -48.17,34.85 -25.98,0.31 -47.54,-13.94 -47.54,-39.62 0,-64 121.69,-24.7 121.69,-107.1 0,-30.1 -24.39,-60.52 -71.3,-60.52" /><path
         id="path56"
         style="fill:#100f0d;fill-opacity:1;fill-rule:nonzero;stroke:none"
         d="m 8123.07,1270.47 h 119.78 v -18.38 h -97.59 v -82.71 h 82.39 V 1151 h -82.39 v -102.04 h -22.19 v 221.51" /><path
         id="path58"
         style="fill:#100f0d;fill-opacity:1;fill-rule:nonzero;stroke:none"
         d="m 8543.53,1066.08 c 49.13,0 86.83,35.8 86.83,93.8 0,57.99 -37.7,93.48 -86.83,93.48 -49.12,0 -86.82,-35.49 -86.82,-93.48 0,-58 37.7,-93.8 86.82,-93.8 z m 0,-19.33 c -62.11,0 -109.63,46.58 -109.63,113.13 0,66.22 47.52,113.13 109.63,113.13 62.43,0 109.65,-46.91 109.65,-113.13 0,-66.55 -47.22,-113.13 -109.65,-113.13" /><path
         id="path60"
         style="fill:#100f0d;fill-opacity:1;fill-rule:nonzero;stroke:none"
         d="m 8925.01,1251.78 h -44.36 v -92.22 h 44.68 c 36.12,0 52.29,19.65 52.29,46.59 0,27.87 -15.21,45.63 -52.61,45.63 z m 0,18.69 c 51.34,0 75.43,-27.88 75.43,-64.32 0,-30.44 -17.12,-56.09 -54.51,-63.08 l 57.04,-94.11 h -26.62 l -54.82,92.53 h -40.88 v -92.53 h -22.18 v 221.51 h 66.54" /><path
         id="path62"
         style="fill:#100f0d;fill-opacity:1;fill-rule:nonzero;stroke:none"
         d="m 9482.96,1270.47 v -203.44 h 79.54 v -18.07 h -101.72 v 221.51 h 22.18" /><path
         id="path64"
         style="fill:#100f0d;fill-opacity:1;fill-rule:nonzero;stroke:none"
         d="m 9858.42,1066.08 c 49.12,0 86.83,35.8 86.83,93.8 0,57.99 -37.71,93.48 -86.83,93.48 -49.11,0 -86.82,-35.49 -86.82,-93.48 0,-58 37.71,-93.8 86.82,-93.8 z m 0,-19.33 c -62.1,0 -109.63,46.58 -109.63,113.13 0,66.22 47.53,113.13 109.63,113.13 62.43,0 109.65,-46.91 109.65,-113.13 0,-66.55 -47.22,-113.13 -109.65,-113.13" /><path
         id="path66"
         style="fill:#100f0d;fill-opacity:1;fill-rule:nonzero;stroke:none"
         d="m 10373.6,1205.82 h -26 c -12.3,28.52 -39.3,46.9 -74.7,46.9 -49.2,0 -86.9,-35.49 -86.9,-92.84 0,-57.36 37.7,-93.16 86.9,-93.16 46.5,0 80.8,31.36 84.2,81.74 h -93.1 v 18.07 h 116.6 v -16.16 c -3.5,-58.62 -47.2,-103.62 -107.7,-103.62 -62.2,0 -109.7,46.58 -109.7,113.13 0,66.22 47.5,113.13 109.7,113.13 47.5,0 84.9,-25.03 100.7,-67.19" /><path
         id="path68"
         style="fill:#100f0d;fill-opacity:1;fill-rule:nonzero;stroke:none"
         d="m 10585.9,1270.47 h 22.2 v -221.51 h -22.2 v 221.51" /><path
         id="path70"
         style="fill:#100f0d;fill-opacity:1;fill-rule:nonzero;stroke:none"
         d="m 10890.4,1046.75 c -44.4,0 -73.5,25.35 -74.8,59.25 h 23.4 c 1.9,-18.38 15.6,-40.55 51.4,-40.55 30.7,0 48.8,18.05 48.8,40.88 0,65.27 -121.7,24.08 -121.7,107.42 0,34.23 28.2,59.26 71,59.26 42.1,0 67.5,-23.45 71.3,-53.87 h -24.1 c -2.6,15.52 -17.4,34.53 -48.2,34.85 -26,0.31 -47.5,-13.94 -47.5,-39.62 0,-64 121.7,-24.7 121.7,-107.1 0,-30.1 -24.4,-60.52 -71.3,-60.52" /><path
         id="path72"
         style="fill:#100f0d;fill-opacity:1;fill-rule:nonzero;stroke:none"
         d="m 11153.3,1270.47 h 145.5 v -18.38 h -61.5 v -203.13 h -22.2 v 203.13 h -61.8 v 18.38" /><path
         id="path74"
         style="fill:#100f0d;fill-opacity:1;fill-rule:nonzero;stroke:none"
         d="m 11498.7,1270.47 h 22.2 v -221.51 h -22.2 v 221.51" /><path
         id="path76"
         style="fill:#100f0d;fill-opacity:1;fill-rule:nonzero;stroke:none"
         d="m 11834.2,1273.01 c 49.5,0 86.2,-24.72 102.1,-67.19 h -26 c -12.4,29.47 -38.3,47.85 -76.1,47.85 -48.4,0 -85.5,-35.8 -85.5,-93.79 0,-57.68 37.1,-93.49 85.5,-93.49 37.8,0 63.7,18.38 76.1,47.22 h 26 c -15.9,-41.83 -52.6,-66.54 -102.1,-66.54 -61.4,0 -108.3,46.26 -108.3,112.81 0,66.54 46.9,113.13 108.3,113.13" /><path
         id="path78"
         style="fill:#100f0d;fill-opacity:1;fill-rule:nonzero;stroke:none"
         d="m 12212.2,1046.75 c -44.3,0 -73.5,25.35 -74.8,59.25 h 23.5 c 1.9,-18.38 15.5,-40.55 51.3,-40.55 30.8,0 48.8,18.05 48.8,40.88 0,65.27 -121.7,24.08 -121.7,107.42 0,34.23 28.3,59.26 71,59.26 42.2,0 67.5,-23.45 71.3,-53.87 h -24.1 c -2.5,15.52 -17.4,34.53 -48.1,34.85 -26,0.31 -47.6,-13.94 -47.6,-39.62 0,-64 121.7,-24.7 121.7,-107.1 0,-30.1 -24.4,-60.52 -71.3,-60.52" /></g></g></svg>